<svg xmlns="http://www.w3.org/2000/svg" width="320" height="260" viewBox="0 0 320 260"><rect width="320" height="260" rx="20" fill="#102a35"/><ellipse cx="160" cy="153" rx="131" ry="87" fill="#071d25"/><ellipse cx="160" cy="142" rx="128" ry="86" fill="#dce4dc"/><ellipse cx="160" cy="142" rx="112" ry="71" fill="#f2eee0"/><g fill="#e9b75d" stroke="#c9b68b" stroke-width="2"><ellipse cx="126" cy="152" rx="57" ry="39"/><path d="m88 135 7 -2"/><path d="m106 135 7 -2"/><path d="m124 135 7 -2"/><path d="m142 135 7 -2"/><path d="m160 135 7 -2"/><path d="m88 147 7 -2"/><path d="m106 147 7 -2"/><path d="m124 147 7 -2"/><path d="m142 147 7 -2"/><path d="m160 147 7 -2"/><path d="m88 159 7 -2"/><path d="m106 159 7 -2"/><path d="m124 159 7 -2"/><path d="m142 159 7 -2"/><path d="m160 159 7 -2"/><path d="m88 171 7 -2"/><path d="m106 171 7 -2"/><path d="m124 171 7 -2"/><path d="m142 171 7 -2"/><path d="m160 171 7 -2"/></g><path d="M80 147q30-55 91-18l7 42q-58 27-98-24" fill="#b84e36"/><g fill="#76442e"><circle cx="108" cy="141" r="10"/><circle cx="135" cy="157" r="12"/><circle cx="154" cy="138" r="9"/></g><g fill="#4b8b51" stroke="#285b36" stroke-width="2"><circle cx="224" cy="128" r="14"/><circle cx="248" cy="149" r="14"/><circle cx="222" cy="159" r="14"/></g><g fill="#d9533e"><circle cx="225" cy="190" r="12"/><circle cx="249" cy="177" r="10"/></g></svg>
